<svg width="16" height="17" viewBox="0 0 16 17" fill="none" xmlns="http://www.w3.org/2000/svg">
<path d="M6.78109 5.69959C7.24345 4.54695 7.47462 3.97063 7.85021 3.89075C7.94897 3.86975 8.05103 3.86975 8.14979 3.89075C8.52538 3.97063 8.75655 4.54695 9.21891 5.69959C9.48184 6.35508 9.61331 6.68283 9.8593 6.90574C9.9283 6.96827 10.0032 7.02395 10.0829 7.07202C10.3673 7.24339 10.7222 7.27517 11.4321 7.33875C12.6337 7.44636 13.2346 7.50017 13.418 7.84275C13.456 7.9137 13.4819 7.99052 13.4945 8.07002C13.5553 8.45385 13.1136 8.85571 12.2302 9.65942L11.9849 9.8826C11.5719 10.2584 11.3654 10.4462 11.2459 10.6807C11.1743 10.8213 11.1262 10.9728 11.1037 11.129C11.0662 11.3895 11.1267 11.662 11.2476 12.2071L11.2908 12.4019C11.5077 13.3794 11.6161 13.8682 11.4808 14.1085C11.3592 14.3243 11.1352 14.4624 10.8878 14.4743C10.6123 14.4874 10.2242 14.1711 9.44795 13.5386C8.93654 13.1219 8.68083 12.9135 8.39696 12.8321C8.13755 12.7577 7.86245 12.7577 7.60304 12.8321C7.31917 12.9135 7.06346 13.1219 6.55205 13.5386C5.7758 14.1711 5.38768 14.4874 5.11223 14.4743C4.86481 14.4624 4.64082 14.3243 4.51923 14.1085C4.38385 13.8682 4.4923 13.3794 4.70919 12.4019L4.7524 12.2071C4.87334 11.662 4.93381 11.3895 4.89628 11.129C4.87377 10.9728 4.82573 10.8213 4.75408 10.6807C4.63464 10.4462 4.42813 10.2584 4.01513 9.8826L3.76981 9.65942C2.88641 8.85571 2.44471 8.45385 2.50554 8.07002C2.51813 7.99052 2.54397 7.9137 2.58197 7.84275C2.76545 7.50017 3.36628 7.44636 4.56795 7.33875C5.27781 7.27517 5.63274 7.24339 5.91706 7.07202C5.9968 7.02395 6.0717 6.96827 6.1407 6.90574C6.38669 6.68283 6.51816 6.35508 6.78109 5.69959Z" fill="#A1A1A1" stroke="#A1A1A1"/>
</svg>
