<svg width="16" height="17" viewBox="0 0 16 17" fill="none" xmlns="http://www.w3.org/2000/svg">
<path fill-rule="evenodd" clip-rule="evenodd" d="M8 14.875C11.3137 14.875 14 12.1887 14 8.875C14 5.56129 11.3137 2.875 8 2.875C4.68629 2.875 2 5.56129 2 8.875C2 12.1887 4.68629 14.875 8 14.875ZM8.66667 5.20833C8.66667 4.84014 8.36819 4.54167 8 4.54167C7.63181 4.54167 7.33333 4.84014 7.33333 5.20833V8.70833C7.33333 9.16857 7.70643 9.54167 8.16667 9.54167H10.3333C10.7015 9.54167 11 9.24319 11 8.875C11 8.50681 10.7015 8.20833 10.3333 8.20833H8.66667V5.20833Z" fill="#A1A1A1"/>
</svg>
