<svg width="13" height="10" viewBox="0 0 13 10" fill="none" xmlns="http://www.w3.org/2000/svg">
<path d="M5.53906 8.03906H7.53906C7.89986 8.03929 8.19218 8.33158 8.19238 8.69238C8.19238 9.05335 7.89998 9.34646 7.53906 9.34668H5.53906C5.17795 9.34668 4.88477 9.05349 4.88477 8.69238C4.88497 8.33145 5.17808 8.03906 5.53906 8.03906ZM3.38477 4.34668H9.69238C10.0533 4.34668 10.3464 4.6391 10.3467 5C10.3467 5.36111 10.0535 5.6543 9.69238 5.6543H3.38477C3.02371 5.65424 2.73145 5.36107 2.73145 5C2.73169 4.63914 3.02386 4.34674 3.38477 4.34668ZM1.23145 0.654297H11.8467C12.2077 0.65446 12.5 0.947586 12.5 1.30859C12.4998 1.6694 12.2075 1.96175 11.8467 1.96191H1.23145C0.870485 1.96191 0.577392 1.66949 0.577148 1.30859C0.577148 0.947485 0.870336 0.654297 1.23145 0.654297Z" fill="#000000" stroke="#000000"/>
</svg>
