<svg width="36" height="36" viewBox="0 0 18 18" fill="none" xmlns="http://www.w3.org/2000/svg">
<path fill-rule="evenodd" clip-rule="evenodd" d="M9.79784 2.94658C8.82602 3.91841 8.50376 5.29507 8.83558 6.53758C8.92114 6.85799 8.82942 7.19972 8.59492 7.43423L1.90176 14.1274L2.09884 15.9011L3.56992 16.0646L3.98936 14.8063C4.08183 14.5288 4.29953 14.3112 4.57695 14.2187L6.1071 13.7086L6.61714 12.1785C6.70962 11.9011 6.92731 11.6834 7.20473 11.5909L8.96751 11.0033L10.5658 9.40507C10.8003 9.17056 11.142 9.07884 11.4624 9.16441C12.7049 9.49622 14.0816 9.17396 15.0534 8.20214C16.5047 6.75086 16.5047 4.39787 15.0534 2.94658C13.6021 1.4953 11.2491 1.4953 9.79784 2.94658ZM6.92448 6.47688C6.64562 4.76849 7.16434 2.9523 8.48395 1.63269C10.6609 -0.544231 14.1904 -0.544231 16.3673 1.63269C18.5442 3.80962 18.5442 7.33911 16.3673 9.51603C15.0477 10.8356 13.2315 11.3544 11.5231 11.0755L10.1263 12.4723C10.0243 12.5743 9.9 12.6511 9.76317 12.6967L8.23302 13.2068L7.72297 14.7369C7.6305 15.0143 7.4128 15.232 7.13538 15.3245L5.60523 15.8345L5.09519 17.3647C4.95665 17.7803 4.54661 18.0427 4.1112 17.9943L1.15494 17.6658C0.723071 17.6178 0.382148 17.2769 0.334162 16.845L0.00568856 13.8888C-0.025479 13.6083 0.0725526 13.3288 0.272122 13.1292L6.92448 6.47688Z" fill="#858585"/>
<path fill-rule="evenodd" clip-rule="evenodd" d="M11.4828 3.72315C11.479 3.21006 11.8919 2.79105 12.405 2.78726C13.1236 2.78195 13.8471 3.05417 14.3965 3.60352C14.9458 4.15288 15.2181 4.87636 15.2128 5.59504C15.209 6.10813 14.79 6.521 14.2769 6.51721C13.7638 6.51342 13.3509 6.0944 13.3547 5.58131C13.3565 5.33973 13.2659 5.10073 13.0826 4.91741C12.8993 4.7341 12.6603 4.64354 12.4187 4.64532C11.9056 4.64912 11.4866 4.23625 11.4828 3.72315Z" fill="#858585"/>
</svg>
