<svg width="12" height="12" viewBox="0 0 12 12" fill="none" xmlns="http://www.w3.org/2000/svg">
<path fill-rule="evenodd" clip-rule="evenodd" d="M6 12C9.31371 12 12 9.31371 12 6C12 2.68629 9.31371 0 6 0C2.68629 0 0 2.68629 0 6C0 9.31371 2.68629 12 6 12ZM6.66667 2.33333C6.66667 1.96514 6.36819 1.66667 6 1.66667C5.63181 1.66667 5.33333 1.96514 5.33333 2.33333V5.83333C5.33333 6.29357 5.70643 6.66667 6.16667 6.66667H8.33333C8.70152 6.66667 9 6.36819 9 6C9 5.63181 8.70152 5.33333 8.33333 5.33333H6.66667V2.33333Z" fill="black"/>
</svg>
