<svg width="19" height="18" viewBox="0 0 19 18" fill="none" xmlns="http://www.w3.org/2000/svg">
<path d="M11.4946 3.09847C10.738 1.14108 10.3597 0.162392 9.74512 0.0267496C9.58351 -0.00891652 9.41649 -0.00891652 9.25489 0.0267496C8.64029 0.162392 8.262 1.14108 7.50542 3.09847C7.07517 4.2116 6.86005 4.76816 6.45751 5.14671C6.34461 5.25289 6.22204 5.34746 6.09155 5.42908C5.62629 5.72009 5.0455 5.77407 3.88392 5.88203C1.91755 6.06478 0.934373 6.15616 0.634134 6.73792C0.571952 6.85841 0.529674 6.98886 0.509059 7.12385C0.40952 7.77566 1.1323 8.45808 2.57787 9.82292L2.9793 10.2019C3.65513 10.84 3.99304 11.1591 4.1885 11.5572C4.30574 11.7961 4.38436 12.0533 4.42119 12.3186C4.4826 12.7609 4.38365 13.2237 4.18574 14.1494L4.11503 14.4801C3.76012 16.1402 3.58267 16.9702 3.80419 17.3782C4.00317 17.7446 4.36968 17.9793 4.77456 17.9993C5.2253 18.0217 5.8604 17.4846 7.13062 16.4105C7.96749 15.7028 8.38592 15.3489 8.85043 15.2107C9.27492 15.0844 9.72508 15.0844 10.1496 15.2107C10.6141 15.3489 11.0325 15.7028 11.8694 16.4105C13.1396 17.4846 13.7747 18.0217 14.2254 17.9993C14.6303 17.9793 14.9968 17.7446 15.1958 17.3782C15.4173 16.9702 15.2399 16.1402 14.885 14.4801L14.8143 14.1494C14.6164 13.2237 14.5174 12.7609 14.5788 12.3186C14.6156 12.0533 14.6943 11.7961 14.8115 11.5572C15.007 11.1591 15.3449 10.84 16.0207 10.2019L16.4221 9.82292C17.8677 8.45808 18.5905 7.77566 18.4909 7.12385C18.4703 6.98886 18.428 6.85841 18.3659 6.73792C18.0656 6.15616 17.0824 6.06478 15.1161 5.88203C13.9545 5.77407 13.3737 5.72009 12.9085 5.42908C12.778 5.34746 12.6554 5.25289 12.5425 5.14671C12.14 4.76816 11.9248 4.2116 11.4946 3.09847Z" fill="black"/>
</svg>
