<svg width="17" height="16" viewBox="0 0 17 16" fill="none" xmlns="http://www.w3.org/2000/svg">
<path d="M4.675 0C2.09304 0 0 2.18832 0 4.88862C0 7.71868 1.54147 10.3887 4.09063 12.8331C4.96069 13.6668 5.89747 14.3983 6.82652 15.0552C7.15216 15.2845 7.45671 15.4925 7.72973 15.6658C7.89616 15.7716 8.0059 15.848 8.075 15.888C8.3317 16.0373 8.6683 16.0373 8.925 15.888C8.99411 15.848 9.10384 15.7716 9.27027 15.6658C9.54329 15.4925 9.84784 15.2845 10.1735 15.0552C11.1025 14.3983 12.0393 13.6668 12.9094 12.8331C15.4585 10.3887 17 7.71868 17 4.88862C17 2.18832 14.907 0 12.325 0C10.8586 0 9.42684 0.83552 8.52652 2.05501C7.64864 0.814187 6.22192 0 4.675 0Z" fill="black"/>
</svg>
