<svg width="28" height="29" viewBox="0 0 28 29" fill="none" xmlns="http://www.w3.org/2000/svg">
<path d="M9.11076 4.875C5.73584 4.875 3 7.6104 3 10.9858C3 14.5234 5.01488 17.8609 8.34691 20.9163C9.48418 21.9585 10.7087 22.8729 11.923 23.6939C12.3487 23.9806 12.7468 24.2406 13.1036 24.4572C13.3212 24.5895 13.4646 24.685 13.5549 24.735C13.8905 24.9217 14.3305 24.9217 14.666 24.735C14.7563 24.685 14.8998 24.5895 15.1173 24.4572C15.4742 24.2406 15.8723 23.9806 16.2979 23.6939C17.5123 22.8729 18.7368 21.9585 19.874 20.9163C23.2061 17.8609 25.2209 14.5234 25.2209 10.9858C25.2209 7.6104 22.4851 4.875 19.1102 4.875C17.1934 4.875 15.322 5.9194 14.1451 7.44376C12.9976 5.89273 11.1328 4.875 9.11076 4.875Z" fill="#E84040"/>
</svg>
