<svg width="23" height="22" viewBox="0 0 23 22" fill="none" xmlns="http://www.w3.org/2000/svg">
<path d="M7.65873 3.14282C5.00701 3.14282 2.85742 5.29207 2.85742 7.94414C2.85742 10.7237 4.44055 13.3461 7.05857 15.7467C7.95214 16.5656 8.91423 17.284 9.86839 17.9291C10.2028 18.1544 10.5156 18.3586 10.796 18.5289C10.9669 18.6328 11.0796 18.7078 11.1506 18.7471C11.4142 18.8938 11.7599 18.8938 12.0236 18.7471C12.0945 18.7078 12.2072 18.6328 12.3782 18.5289C12.6586 18.3586 12.9713 18.1544 13.3058 17.9291C14.2599 17.284 15.222 16.5656 16.1156 15.7467C18.7336 13.3461 20.3167 10.7237 20.3167 7.94414C20.3167 5.29207 18.1671 3.14282 15.5154 3.14282C14.0094 3.14282 12.539 3.96342 11.6143 5.16113C10.7127 3.94247 9.24744 3.14282 7.65873 3.14282Z" fill="#E84040"/>
</svg>
