<svg width="12" height="12" viewBox="0 0 12 12" fill="none" xmlns="http://www.w3.org/2000/svg">
<path d="M4.78109 2.32459C5.24345 1.17195 5.47462 0.595628 5.85021 0.515752C5.94897 0.494749 6.05103 0.494749 6.14979 0.515752C6.52538 0.595628 6.75655 1.17195 7.21891 2.32459C7.48184 2.98008 7.61331 3.30783 7.8593 3.53074C7.9283 3.59327 8.0032 3.64895 8.08294 3.69702C8.36727 3.86839 8.72219 3.90017 9.43205 3.96375C10.6337 4.07136 11.2346 4.12517 11.418 4.46775C11.456 4.5387 11.4819 4.61552 11.4945 4.69502C11.5553 5.07885 11.1136 5.48071 10.2302 6.28442L9.98487 6.5076C9.57187 6.88335 9.36536 7.07123 9.24592 7.30569C9.17427 7.44634 9.12623 7.59781 9.10372 7.75404C9.06619 8.01449 9.12666 8.28704 9.2476 8.83214L9.29081 9.0269C9.5077 10.0044 9.61615 10.4932 9.48077 10.7335C9.35918 10.9493 9.13519 11.0874 8.88777 11.0993C8.61232 11.1124 8.2242 10.7961 7.44795 10.1636C6.93654 9.74689 6.68083 9.53852 6.39696 9.45713C6.13755 9.38274 5.86245 9.38274 5.60304 9.45713C5.31917 9.53852 5.06346 9.74689 4.55205 10.1636C3.7758 10.7961 3.38768 11.1124 3.11223 11.0993C2.86481 11.0874 2.64082 10.9493 2.51923 10.7335C2.38385 10.4932 2.4923 10.0044 2.70919 9.0269L2.7524 8.83214C2.87334 8.28704 2.93381 8.01449 2.89628 7.75404C2.87377 7.59781 2.82573 7.44634 2.75408 7.30569C2.63464 7.07123 2.42813 6.88335 2.01513 6.5076L1.76981 6.28442C0.886409 5.48071 0.444707 5.07885 0.505536 4.69502C0.518134 4.61552 0.54397 4.5387 0.581971 4.46775C0.76545 4.12517 1.36628 4.07136 2.56795 3.96375C3.27781 3.90017 3.63274 3.86839 3.91706 3.69702C3.9968 3.64895 4.0717 3.59327 4.1407 3.53074C4.38669 3.30783 4.51816 2.98008 4.78109 2.32459Z" fill="black" stroke="black"/>
</svg>
